<svg xmlns="http://www.w3.org/2000/svg" xmlns:svg="http://www.w3.org/2000/svg" id="svg4780" width="32" height="32" version="1.1" viewBox="0 0 8.467 8.467"><metadata id="metadata4777"/><g id="layer1" transform="translate(0,-288.53332)"><path style="fill:#ccc;fill-opacity:1;stroke:#000;stroke-width:.24947822;stroke-miterlimit:4;stroke-dasharray:none;stroke-opacity:1" id="path5334" d="m 3.2354206,288.775 v 1.17284 a 2.9937388,2.9937388 0 0 0 -0.2904081,0.11938 l -0.8283458,-0.82883 -1.41159842,1.4116 0.82932012,0.82932 A 2.9937388,2.9937388 0 0 0 1.414522,291.76874 H 0.24168198 v 1.99583 H 1.414522 a 2.9937388,2.9937388 0 0 0 0.1193792,0.2904 l -0.82883292,0.82835 1.41159842,1.4116 0.8293202,-0.82932 a 2.9937388,2.9937388 0 0 0 0.2894337,0.11986 v 1.17284 h 1.9958257 v -1.17284 a 2.9937388,2.9937388 0 0 0 0.2904081,-0.11937 l 0.8283458,0.82883 1.4115984,-1.4116 -0.8293203,-0.82932 a 2.9937388,2.9937388 0 0 0 0.1198666,-0.28943 h 1.17284 v -1.99583 h -1.17284 a 2.9937388,2.9937388 0 0 0 -0.1193793,-0.29041 l 0.828833,-0.82834 -1.4115984,-1.4116 -0.8293202,0.82932 A 2.9937388,2.9937388 0 0 0 5.2312463,289.94784 V 288.775 Z m 0.9979128,2.99374 a 0.99791291,0.99791291 0 0 1 0.9979129,0.99791 0.99791291,0.99791291 0 0 1 -0.9979129,0.99792 0.99791291,0.99791291 0 0 1 -0.9979128,-0.99792 0.99791291,0.99791291 0 0 1 0.9979128,-0.99791 z"/></g></svg>