<svg xmlns="http://www.w3.org/2000/svg" xmlns:osb="http://www.openswatchbook.org/uri/2009/osb" xmlns:svg="http://www.w3.org/2000/svg" xmlns:xlink="http://www.w3.org/1999/xlink" id="svg8" width="40" height="40" enable-background="new" version="1.1" viewBox="0 0 10.583 10.583"><defs id="defs2"><linearGradient id="linearGradient2559"><stop id="stop2555" offset="0" style="stop-color:#aceeff;stop-opacity:1"/><stop id="stop2557" offset="1" style="stop-color:#7ee5ff;stop-opacity:0"/></linearGradient><linearGradient id="linearGradient2508"><stop style="stop-color:#fff;stop-opacity:1" id="stop2504" offset="0"/><stop style="stop-color:#fff;stop-opacity:0" id="stop2506" offset="1"/></linearGradient><linearGradient id="linearGradient2455"><stop style="stop-color:#aceeff;stop-opacity:1" id="stop2451" offset="0"/><stop style="stop-color:#7ee4ff;stop-opacity:0" id="stop2453" offset="1"/></linearGradient><linearGradient id="linearGradient2375"><stop style="stop-color:#aceeff;stop-opacity:1" id="stop2371" offset="0"/><stop style="stop-color:#5ddeff;stop-opacity:0" id="stop2373" offset="1"/></linearGradient><linearGradient id="linearGradient2340" osb:paint="solid"><stop style="stop-color:#aceeff;stop-opacity:1" id="stop2338" offset="0"/></linearGradient><linearGradient id="linearGradient2377" x1="4.633" x2="5.054" y1="2.464" y2="2.664" gradientUnits="userSpaceOnUse" xlink:href="#linearGradient2375"/><filter style="color-interpolation-filters:sRGB" id="filter2395"><feBlend id="feBlend2397" in2="BackgroundImage" mode="darken"/></filter><radialGradient id="radialGradient2409" cx="6.114" cy="3.651" r="1.37" fx="6.114" fy="3.651" gradientTransform="matrix(0.39023536,0.20236996,-1.3951529,2.6903106,8.8217187,-7.4086219)" gradientUnits="userSpaceOnUse" xlink:href="#linearGradient2559"/><radialGradient id="radialGradient2457" cx="8.327" cy="4.901" r="1.443" fx="8.327" fy="4.901" gradientTransform="matrix(0.42578945,0.15579767,-0.87474389,2.390644,9.0682392,-8.1126306)" gradientUnits="userSpaceOnUse" xlink:href="#linearGradient2455"/><radialGradient id="radialGradient2512" cx="7.337" cy="3.943" r="1.182" fx="7.337" fy="3.943" gradientTransform="matrix(0.40508575,0.17956364,-1.2361204,2.7886204,9.23919,-8.3701342)" gradientUnits="userSpaceOnUse" xlink:href="#linearGradient2508"/><filter style="color-interpolation-filters:sRGB" id="filter2551"><feBlend id="feBlend2553" in2="BackgroundImage" mode="overlay"/></filter></defs><metadata id="metadata5"/><g id="layer2"><path style="fill:#d5f6ff;stroke:#000;stroke-width:.26458332px;stroke-linecap:butt;stroke-linejoin:miter;stroke-opacity:1" id="path865" d="m 5.2451645,287.4618 c 0,0 1.1191912,-0.36749 1.1191912,0.70158 0,1.06908 0.9099239,0.34846 1.3530519,0.23387 0.4001704,-0.10348 0.8853302,-0.0334 1.0022607,0.98555 0.1169305,1.01897 1.4699827,0.88533 1.4699827,0.88533 0,0 -0.5950733,1.26157 -1.4532785,3.65825 0,0 -1.3530518,0.13364 -1.6370257,-1.1693 -0.2839738,-1.30294 -1.2695302,-0.68488 -1.2695302,-0.68488 0,0 -0.9354434,0.50113 -1.0690781,-0.56795 -0.1336348,-1.06907 -1.0690781,-0.91874 -1.0690781,-0.91874" transform="translate(0,-286.41664)"/></g><g id="layer1" transform="translate(0,-286.41665)" style="display:inline"><path style="fill:#e2e2e2;stroke:#000;stroke-width:.16500001;stroke-linecap:butt;stroke-linejoin:miter;stroke-miterlimit:4;stroke-dasharray:none;stroke-opacity:1;fill-opacity:1" id="path859" d="m 0.58465209,295.81397 4.32642541,-8.58603 c 0,0 0.334087,-0.15034 0.3173825,0.13364 -0.016703,0.28397 -3.543773,7.20112 -4.3431297,8.71966 -0.0624635,0.11866 -0.30067821,-0.0167 -0.30067821,-0.26727 z"/><path style="fill:#f2f2f2;fill-opacity:0;fill-rule:nonzero;stroke:none;stroke-width:.03937209;stroke-miterlimit:4;stroke-dasharray:none;stroke-opacity:1" id="path2561" d="M 2.8339053,36.189779 C 2.6726724,36.01276 2.5624724,35.80268 2.5624724,35.672333 c 0,-0.05477 1.6154296,-3.302546 3.5898435,-7.217271 1.974414,-3.914725 5.6294611,-11.166184 8.1223261,-16.114353 2.492865,-4.9481694 4.539052,-9.005166 4.547082,-9.0155482 0.008,-0.010382 0.138687,-0.024587 0.290351,-0.031567 l 0.275751,-0.012691 -0.0069,0.2209709 c -0.008,0.2550665 -0.422603,1.2068574 -1.608842,3.6933702 C 14.981914,13.043743 3.1829284,36.331832 3.0099071,36.331832 c -0.025639,0 -0.1048402,-0.06392 -0.1760018,-0.142053 z" transform="matrix(0.26458333,0,0,0.26458333,0,286.41665)"/><path style="fill:#e6e6e6;fill-opacity:0;fill-rule:nonzero;stroke:none;stroke-width:.03937209;stroke-miterlimit:4;stroke-dasharray:none;stroke-opacity:1" id="path2563" d="M 2.8339053,36.189779 C 2.6726724,36.01276 2.5624724,35.80268 2.5624724,35.672333 c 0,-0.05477 1.6154296,-3.302546 3.5898435,-7.217271 1.974414,-3.914725 5.6294611,-11.166184 8.1223261,-16.114353 2.492865,-4.9481694 4.539052,-9.005166 4.547082,-9.0155482 0.008,-0.010382 0.138687,-0.024587 0.290351,-0.031567 l 0.275751,-0.012691 -0.0069,0.2209709 c -0.008,0.2550665 -0.422603,1.2068574 -1.608842,3.6933702 C 14.981914,13.043743 3.1829284,36.331832 3.0099071,36.331832 c -0.025639,0 -0.1048402,-0.06392 -0.1760018,-0.142053 z" transform="matrix(0.26458333,0,0,0.26458333,0,286.41665)"/><path style="fill:#e6e6e6;fill-opacity:0;fill-rule:nonzero;stroke:none;stroke-width:.03937209;stroke-miterlimit:4;stroke-dasharray:none;stroke-opacity:1" id="path2565" d="M 2.8339053,36.189779 C 2.6726724,36.01276 2.5624724,35.80268 2.5624724,35.672333 c 0,-0.05477 1.6154296,-3.302546 3.5898435,-7.217271 1.974414,-3.914725 5.6294611,-11.166184 8.1223261,-16.114353 2.492865,-4.9481694 4.539052,-9.005166 4.547082,-9.0155482 0.008,-0.010382 0.138687,-0.024587 0.290351,-0.031567 l 0.275751,-0.012691 -0.0069,0.2209709 c -0.008,0.2550665 -0.422603,1.2068574 -1.608842,3.6933702 C 14.981914,13.043743 3.1829284,36.331832 3.0099071,36.331832 c -0.025639,0 -0.1048402,-0.06392 -0.1760018,-0.142053 z" transform="matrix(0.26458333,0,0,0.26458333,0,286.41665)"/><path style="fill:#666;fill-opacity:0;fill-rule:nonzero;stroke:none;stroke-width:.03937209;stroke-miterlimit:4;stroke-dasharray:none;stroke-opacity:1" id="path2567" d="M 2.8339053,36.189779 C 2.6726724,36.01276 2.5624724,35.80268 2.5624724,35.672333 c 0,-0.05477 1.6154296,-3.302546 3.5898435,-7.217271 1.974414,-3.914725 5.6294611,-11.166184 8.1223261,-16.114353 2.492865,-4.9481694 4.539052,-9.005166 4.547082,-9.0155482 0.008,-0.010382 0.138687,-0.024587 0.290351,-0.031567 l 0.275751,-0.012691 -0.0069,0.2209709 c -0.008,0.2550665 -0.422603,1.2068574 -1.608842,3.6933702 C 14.981914,13.043743 3.1829284,36.331832 3.0099071,36.331832 c -0.025639,0 -0.1048402,-0.06392 -0.1760018,-0.142053 z" transform="matrix(0.26458333,0,0,0.26458333,0,286.41665)"/><path style="fill:#666;fill-opacity:0;fill-rule:nonzero;stroke:none;stroke-width:.03937209;stroke-miterlimit:4;stroke-dasharray:none;stroke-opacity:1" id="path2569" d="M 2.8339053,36.189779 C 2.6726724,36.01276 2.5624724,35.80268 2.5624724,35.672333 c 0,-0.05477 1.6154296,-3.302546 3.5898435,-7.217271 1.974414,-3.914725 5.6294611,-11.166184 8.1223261,-16.114353 2.492865,-4.9481694 4.539052,-9.005166 4.547082,-9.0155482 0.008,-0.010382 0.138687,-0.024587 0.290351,-0.031567 l 0.275751,-0.012691 -0.0069,0.2209709 c -0.008,0.2550665 -0.422603,1.2068574 -1.608842,3.6933702 C 14.981914,13.043743 3.1829284,36.331832 3.0099071,36.331832 c -0.025639,0 -0.1048402,-0.06392 -0.1760018,-0.142053 z" transform="matrix(0.26458333,0,0,0.26458333,0,286.41665)"/><path style="fill:#4d4d4d;fill-opacity:0;fill-rule:nonzero;stroke:none;stroke-width:.03937209;stroke-miterlimit:4;stroke-dasharray:none;stroke-opacity:1" id="path2571" d="M 2.8339053,36.189779 C 2.6726724,36.01276 2.5624724,35.80268 2.5624724,35.672333 c 0,-0.05477 1.6154296,-3.302546 3.5898435,-7.217271 1.974414,-3.914725 5.6294611,-11.166184 8.1223261,-16.114353 2.492865,-4.9481694 4.539052,-9.005166 4.547082,-9.0155482 0.008,-0.010382 0.138687,-0.024587 0.290351,-0.031567 l 0.275751,-0.012691 -0.0069,0.2209709 c -0.008,0.2550665 -0.422603,1.2068574 -1.608842,3.6933702 C 14.981914,13.043743 3.1829284,36.331832 3.0099071,36.331832 c -0.025639,0 -0.1048402,-0.06392 -0.1760018,-0.142053 z" transform="matrix(0.26458333,0,0,0.26458333,0,286.41665)"/><path style="fill:#4d4d4d;fill-opacity:0;fill-rule:nonzero;stroke:none;stroke-width:.03937209;stroke-miterlimit:4;stroke-dasharray:none;stroke-opacity:1" id="path2573" d="M 2.8339053,36.189779 C 2.6726724,36.01276 2.5624724,35.80268 2.5624724,35.672333 c 0,-0.05477 1.6154296,-3.302546 3.5898435,-7.217271 1.974414,-3.914725 5.6294611,-11.166184 8.1223261,-16.114353 2.492865,-4.9481694 4.539052,-9.005166 4.547082,-9.0155482 0.008,-0.010382 0.138687,-0.024587 0.290351,-0.031567 l 0.275751,-0.012691 -0.0069,0.2209709 c -0.008,0.2550665 -0.422603,1.2068574 -1.608842,3.6933702 C 14.981914,13.043743 3.1829284,36.331832 3.0099071,36.331832 c -0.025639,0 -0.1048402,-0.06392 -0.1760018,-0.142053 z" transform="matrix(0.26458333,0,0,0.26458333,0,286.41665)"/></g><g id="layer3" style="filter:url(#filter2395)"><path style="fill:url(#linearGradient2377);fill-opacity:1;stroke:none;stroke-width:.26499999;stroke-linecap:butt;stroke-linejoin:miter;stroke-miterlimit:4;stroke-dasharray:none;stroke-opacity:1" id="path2369" d="M 5.2451645,1.04516 3.6916603,4.1688699 4.3532627,4.3725303 6.0130725,1.0728287 Z"/><path style="fill:url(#radialGradient2409);stroke:none;stroke-width:.26458332px;stroke-linecap:butt;stroke-linejoin:miter;stroke-opacity:1;fill-opacity:1" id="path2399" d="M 6.3476512,1.5128737 4.7440341,4.8036297 4.9110775,5.5219165 5.3119818,5.7891862 5.8298167,5.65556 v 0 L 7.4835466,2.1142301 6.8988947,2.3313866 6.5146946,2.2478649 6.3309467,1.8970736 Z"/><path style="fill:url(#radialGradient2457);stroke:none;stroke-width:.26458332px;stroke-linecap:butt;stroke-linejoin:miter;stroke-opacity:1;fill-opacity:1" id="path2449" d="m 7.0241773,6.1483295 1.5702084,-3.6164907 0.2672694,0.7600477 0.3674956,0.4176086 0.3507912,0.083522 c 0,0 -1.3446998,2.8313864 -1.3530519,3.6666037 L 7.7007033,7.3176338 7.2162773,6.7997991 Z"/></g><g id="layer4" style="filter:url(#filter2551)"><path style="fill:url(#radialGradient2512);stroke:none;stroke-width:.26458332px;stroke-linecap:butt;stroke-linejoin:miter;stroke-opacity:1;fill-opacity:1" id="path2502" d="m 7.4835463,2.1142301 -1.327995,3.4160385 0.3841998,0.00835 0.3173826,0.2589173 0.091874,0.1503392 1.5702084,-3.7000126 c 0,0 -0.3424388,-0.3257347 -0.3758478,-0.3090304 -0.033409,0.016704 -0.3841998,0.016704 -0.3841998,0.016704 z"/></g></svg>