<svg xmlns="http://www.w3.org/2000/svg" xmlns:svg="http://www.w3.org/2000/svg" xmlns:xlink="http://www.w3.org/1999/xlink" id="svg1" width="768" height="384" version="1.1" viewBox="0 0 203.2 101.6" xml:space="preserve"><defs id="defs1"><linearGradient id="linearGradient1263"><stop style="stop-color:#8f8f8f;stop-opacity:1" id="stop1263" offset="0"/><stop style="stop-color:#a0a0a0;stop-opacity:1" id="stop1264" offset="1"/></linearGradient><linearGradient id="linearGradient1261"><stop style="stop-color:#b5b5b5;stop-opacity:1" id="stop1261" offset="0"/><stop style="stop-color:#7e7e7e;stop-opacity:1" id="stop1262" offset="1"/></linearGradient><linearGradient id="linearGradient42"><stop style="stop-color:#b2b2b2;stop-opacity:1" id="stop43" offset="0"/><stop style="stop-color:#d8d8d8;stop-opacity:1" id="stop44" offset="1"/></linearGradient><linearGradient id="linearGradient40"><stop style="stop-color:#bfbfbf;stop-opacity:1" id="stop40" offset="0"/><stop style="stop-color:#a6a6a6;stop-opacity:1" id="stop42" offset=".716"/><stop style="stop-color:#555;stop-opacity:1" id="stop41" offset="1"/></linearGradient><linearGradient id="linearGradient38"><stop style="stop-color:#bfbfbf;stop-opacity:1" id="stop38" offset="0"/><stop style="stop-color:#d9d9d9;stop-opacity:1" id="stop1257" offset=".7"/><stop style="stop-color:#ededed;stop-opacity:1" id="stop39" offset="1"/></linearGradient><linearGradient id="linearGradient31"><stop style="stop-color:#ededed;stop-opacity:1" id="stop31" offset="0"/><stop style="stop-color:#fff;stop-opacity:1" id="stop32" offset="1"/></linearGradient><linearGradient id="linearGradient32" x1="111.124" x2="152.467" y1="28.572" y2="28.572" gradientTransform="matrix(1.2008549,0,0,1.0494956,-20.245707,-0.46839822)" gradientUnits="userSpaceOnUse" xlink:href="#linearGradient31"/><linearGradient id="linearGradient39" x1="28.737" x2="120.137" y1="28.505" y2="29.374" gradientTransform="matrix(1.1156957,0,0,1.0467895,-9.681928,0.06279817)" gradientUnits="userSpaceOnUse" xlink:href="#linearGradient38"/><linearGradient id="linearGradient41" x1="115.866" x2="115.866" y1="7.833" y2="69.327" gradientTransform="matrix(1.6285952,0,0,1.000609,-64.846025,-0.02349641)" gradientUnits="userSpaceOnUse" xlink:href="#linearGradient40"/><linearGradient id="linearGradient44" x1="35.478" x2="171.27" y1="58.985" y2="58.985" gradientTransform="matrix(1.1734218,0,0,1.1563967,-19.250223,-7.6029093)" gradientUnits="userSpaceOnUse" xlink:href="#linearGradient42"/><linearGradient id="linearGradient1262" x1="24.419" x2="24.419" y1="76.871" y2="19.566" gradientTransform="matrix(1.0016567,0,0,0.89440197,-0.04039081,8.2039817)" gradientUnits="userSpaceOnUse" xlink:href="#linearGradient1261"/><linearGradient id="linearGradient1264" x1="20.2" x2="28.599" y1="78.506" y2="78.506" gradientUnits="userSpaceOnUse" xlink:href="#linearGradient1263"/><linearGradient id="linearGradient1265" x1="24.419" x2="24.419" y1="76.871" y2="19.566" gradientTransform="matrix(-1.4637321,0,0,0.96139869,217.08289,7.0538055)" gradientUnits="userSpaceOnUse" xlink:href="#linearGradient1261"/><linearGradient id="linearGradient1266" x1="20.2" x2="28.599" y1="78.506" y2="78.506" gradientTransform="matrix(-1.449678,0,0,0.99090318,216.85763,0.71416178)" gradientUnits="userSpaceOnUse" xlink:href="#linearGradient1263"/></defs><g id="layer1"><path id="rect1260-5" d="m 175.66866,23.998326 v 0 c 0,0 -0.0993,0.02709 -0.0993,0.06075 v 55.201157 c 0,0.03365 -0.21105,2.436724 -0.15879,2.426312 l 11.88029,-2.365551 c 0.0522,-0.01038 0.0993,-0.02711 0.0993,-0.06075 v -51.36464 c 0,-0.03366 -11.66656,-3.897277 -11.72152,-3.897278 z" style="display:none;fill:url(#linearGradient1265);stroke:none;stroke-width:.303331"/><path style="display:none;fill:url(#linearGradient1266);fill-opacity:1;stroke:none;stroke-width:.317113" id="path1261-5" d="m 187.34744,75.140161 0.0343,3.926573 -11.79204,2.80045 v -4.170857 z"/><path id="rect1260" d="m 28.300076,23.967692 v 0 c 0,0 0.06788,0.02521 0.06788,0.05653 v 51.354364 c 0,0.03132 0.144432,2.266914 0.108664,2.257231 l -8.129887,-2.200701 c -0.03577,-0.0097 -0.06788,-0.02521 -0.06788,-0.05653 V 27.593382 c 0,-0.03131 7.983613,-3.625689 8.021223,-3.62569 z" style="display:none;fill:url(#linearGradient1262);stroke:none;stroke-width:.242025"/><path style="display:inline;fill:url(#linearGradient1264);fill-opacity:1;stroke:none;stroke-width:.264583" id="path1261" d="m 20.356365,75.109257 -0.02373,3.96262 8.134254,2.82616 v -4.209148 z"/><rect style="display:inline;fill:url(#linearGradient44);stroke:none;stroke-width:.33523" id="rect42" width="159.172" height="24.749" x="22.38" y="47.793" ry=".091"/><path id="rect31" d="m 124.50269,50.400524 -1e-5,-48.9221377 c 0,0 14.2719,0.6534158 28.34849,6.2049647 8.45369,3.333979 28.53226,15.677574 28.53226,15.677574 5.22017,5.110397 4.39259,49.071125 -0.017,48.921201 -0.0774,-0.0026 -20.06613,-12.342516 -28.51529,-15.676637 -14.07526,-5.554229 -28.34845,-6.204965 -28.34845,-6.204965 z" style="display:inline;opacity:1;mix-blend-mode:normal;fill:url(#linearGradient32);stroke:none;stroke-width:.297029"/><path id="rect37" d="m 119.02416,7.7221618 h 4.82589 c 0.002,0 0.003,0.041247 0.003,0.092483 V 69.34618 c 0,0.05124 -0.002,0.09249 -0.003,0.09249 h -4.82589 c -0.002,0 -0.003,-0.04125 -0.003,-0.09249 V 7.8146444 c 0,-0.051236 0.002,-0.092483 0.003,-0.092483 z" style="display:none;fill:url(#linearGradient41);stroke:#000;stroke-width:.074552"/><path style="display:inline;fill:url(#linearGradient39);stroke:none;stroke-width:.285933" id="path47" d="M 22.380198,5.435 22.38,54.368 h 72.368659 l 11.373411,-4.097 h 18.23209 L 124.50268,1.478 H 106.12207 L 94.748659,5.435 Z"/><path id="rect48" d="m 40.362031,79.391905 120.554739,2e-6 c 6.37766,0 9.10361,-0.715199 9.10361,5.355961 0,6.07116 -23.7451,13.708461 -30.12276,13.708461 H 61.252056 c -6.377655,0 -29.99365,-7.637301 -29.99365,-13.708461 0,-6.07116 2.725971,-5.355963 9.103625,-5.355963 z" style="fill:#363636;stroke:none;stroke-width:.321292"/><ellipse style="fill:#666;fill-opacity:1;stroke:none;stroke-width:.208761" id="path46" cx="158.043" cy="84.746" rx="8.67" ry="5.358"/><ellipse style="fill:#666;fill-opacity:1;stroke:none;stroke-width:.208762" id="path46-7" cx="43.236" cy="84.746" rx="8.67" ry="5.358"/><ellipse style="fill:#666;fill-opacity:1;stroke:none;stroke-width:.264583" id="path46-7-0" cx="63.13" cy="91.669" rx="10.988" ry="6.791"/><ellipse style="fill:#666;fill-opacity:1;stroke:none;stroke-width:.264583" id="path46-7-0-0" cx="88.108" cy="91.669" rx="10.988" ry="6.791"/><ellipse style="fill:#666;fill-opacity:1;stroke:none;stroke-width:.264583" id="path46-7-0-06" cx="113.086" cy="91.669" rx="10.988" ry="6.791"/><ellipse style="fill:#666;fill-opacity:1;stroke:none;stroke-width:.264583" id="path46-7-0-0-1" cx="138.026" cy="91.669" rx="10.988" ry="6.791"/></g></svg>