<svg xmlns="http://www.w3.org/2000/svg" xmlns:svg="http://www.w3.org/2000/svg" xmlns:xlink="http://www.w3.org/1999/xlink" id="svg839" width="64" height="64" version="1.1" viewBox="0 0 16.933 16.933"><defs id="defs833"><linearGradient id="linearGradient1446"><stop style="stop-color:#520;stop-opacity:1" id="stop1442" offset="0"/><stop style="stop-color:#a05a2c;stop-opacity:1" id="stop1444" offset="1"/></linearGradient><linearGradient id="linearGradient1450" x1="87.901" x2="88.847" y1="101.468" y2="108.46" gradientTransform="rotate(10.559467,-184.13206,107.4111)" gradientUnits="userSpaceOnUse" spreadMethod="reflect" xlink:href="#linearGradient1446"/><linearGradient id="linearGradient1459" x1="87.901" x2="88.847" y1="101.468" y2="108.46" gradientTransform="translate(6.810255,31.748567)" gradientUnits="userSpaceOnUse" spreadMethod="reflect" xlink:href="#linearGradient1446"/><linearGradient id="linearGradient1530" x1="87.901" x2="88.847" y1="101.468" y2="108.46" gradientTransform="translate(6.810255,31.748567)" gradientUnits="userSpaceOnUse" spreadMethod="reflect" xlink:href="#linearGradient1446"/><linearGradient id="linearGradient1540" x1="87.901" x2="88.847" y1="101.468" y2="108.46" gradientTransform="rotate(10.559467,-187.52614,104.40937)" gradientUnits="userSpaceOnUse" spreadMethod="reflect" xlink:href="#linearGradient1446"/><linearGradient id="linearGradient1550" x1="87.901" x2="88.847" y1="101.468" y2="108.46" gradientTransform="rotate(10.559467,-187.52614,104.40937)" gradientUnits="userSpaceOnUse" spreadMethod="reflect" xlink:href="#linearGradient1446"/><linearGradient id="linearGradient1566" x1="87.901" x2="88.847" y1="101.468" y2="108.46" gradientTransform="translate(6.810255,31.748567)" gradientUnits="userSpaceOnUse" spreadMethod="reflect" xlink:href="#linearGradient1446"/><linearGradient id="linearGradient1574" x1="127.596" x2="127.141" y1="154.525" y2="163.337" gradientUnits="userSpaceOnUse" xlink:href="#linearGradient1446"/><linearGradient id="linearGradient1576" x1="127.596" x2="127.083" y1="154.525" y2="166.661" gradientUnits="userSpaceOnUse" xlink:href="#linearGradient1446"/><linearGradient id="linearGradient1652" x1="87.901" x2="88.847" y1="101.468" y2="108.46" gradientTransform="rotate(10.559467,-187.52614,104.40937)" gradientUnits="userSpaceOnUse" spreadMethod="reflect" xlink:href="#linearGradient1446"/><linearGradient id="linearGradient1654" x1="87.901" x2="88.847" y1="101.468" y2="108.46" gradientTransform="rotate(10.559467,-187.52614,104.40937)" gradientUnits="userSpaceOnUse" spreadMethod="reflect" xlink:href="#linearGradient1446"/><linearGradient id="linearGradient1656" x1="87.901" x2="88.847" y1="101.468" y2="108.46" gradientTransform="translate(6.810255,31.748567)" gradientUnits="userSpaceOnUse" spreadMethod="reflect" xlink:href="#linearGradient1446"/><linearGradient id="linearGradient1658" x1="87.901" x2="88.847" y1="101.468" y2="108.46" gradientTransform="rotate(10.559467,-184.13206,107.4111)" gradientUnits="userSpaceOnUse" spreadMethod="reflect" xlink:href="#linearGradient1446"/><linearGradient id="linearGradient1660" x1="87.901" x2="88.847" y1="101.468" y2="108.46" gradientTransform="translate(6.810255,31.748567)" gradientUnits="userSpaceOnUse" spreadMethod="reflect" xlink:href="#linearGradient1446"/><linearGradient id="linearGradient1662" x1="87.901" x2="88.847" y1="101.468" y2="108.46" gradientTransform="translate(6.810255,31.748567)" gradientUnits="userSpaceOnUse" spreadMethod="reflect" xlink:href="#linearGradient1446"/><linearGradient id="linearGradient1664" x1="127.596" x2="127.083" y1="154.525" y2="166.661" gradientUnits="userSpaceOnUse" xlink:href="#linearGradient1446"/><linearGradient id="linearGradient1666" x1="127.596" x2="127.141" y1="154.525" y2="163.337" gradientUnits="userSpaceOnUse" xlink:href="#linearGradient1446"/></defs><metadata id="metadata836"/><g id="layer1"><g style="fill:url(#linearGradient1574);fill-opacity:1;stroke-width:5.57045;stroke-miterlimit:4;stroke-dasharray:none" id="g1582" transform="matrix(-0.05617058,0.00224958,-0.00100715,-0.12546306,46.098573,33.147185)"><path id="path1578" d="m 9.8419805,157.20932 c -0.654063,3.5087 -3.26029,5.96605 -5.8211687,5.48867 -0.6402181,-0.11934 -1.2169954,-0.4108 -1.7118165,-0.8357 -0.4948196,-0.42489 0.1510175,-1.50698 -0.161381,-2.16003 -0.3123984,-0.65305 -2.84461965,0.79138 -1.67598535,-1.68087 0.3458061,-0.73154 -0.7026839,-2.06158 -0.5391684,-2.93875 0.1737775,-0.93222 1.12111605,-1.39228 1.53303845,-2.14075 1.1384704,-2.06862 3.0434051,-3.30052 4.9238885,-2.94997 2.560877,0.47737 4.1066565,3.70872 3.452593,7.2174 z" style="opacity:.99;fill:#c87137;fill-opacity:1;stroke:#000;stroke-width:5.57045;stroke-linecap:square;stroke-miterlimit:4;stroke-dasharray:none;paint-order:markers fill stroke"/><path id="path1580" d="m 6.4755185,162.57806 c 19.4222995,-4.10131 40.3398355,0.68247 59.7202515,2.13162 28.838159,2.07035 56.36229,3.69164 85.21764,2.73384 10.26137,-0.34062 30.78041,5.22189 40.48753,3.64152 1.04357,-0.16991 2.47409,0.44187 3.24155,0.0907 0.76749,-0.35121 -0.59714,-2.0351 -0.15813,-2.60005 0.43903,-0.56494 2.16978,-0.87521 2.228,-1.68632 0.033,-0.45971 -0.4454,-1.61921 -0.89984,-2.17635 -0.99692,-1.22221 -0.98989,0.086 -1.15234,-0.38609 -1.06908,-0.6643 1.42936,-2.43691 0.33615,-3.00242 -1.0932,-0.56551 -4.12987,-0.37527 -5.30337,-0.67917 -16.02845,-4.15082 -33.23463,-3.50243 -50.06523,-4.61955 -6.0508,0.82852 -2.85765,-4.99631 -3.47289,-5.36844 -0.62996,-0.38103 -0.56505,-0.69637 -1.31502,-0.73665 -0.74996,-0.0403 -0.90961,-2.18662 -1.48305,-1.71541 -2.50046,2.05466 -1.59805,-0.72086 -2.22736,-0.34412 -2.17019,1.29928 -1.45639,-1.19392 -2.2629,-1.08442 -3.69348,0.50144 -5.85817,7.07765 -7.64141,6.96085 -25.2166,0.74562 -52.333491,1.30822 -77.719594,-2.95683 -7.926256,0.14153 -28.458364,-3.92414 -38.3111695,-1.16169 -1.228341,0.34439 -2.2480335,0.85088 -3.086755,1.44145 -0.7936094,0.55881 5.338367,0.7021 4.209659,1.62229 -1.184577,1.9273 0.304157,2.56181 0.546954,3.51868 0.24088,0.94944 -0.771776,2.22466 -0.0078,3.25827 0.572317,0.99781 -3.0823127,2.00393 -2.7304439,2.6178 z" style="opacity:.99;fill:url(#linearGradient1576);fill-opacity:1;stroke:#000;stroke-width:5.57045;stroke-linecap:square;stroke-miterlimit:4;stroke-dasharray:none;paint-order:markers fill stroke"/></g><g id="g1588" transform="matrix(0.06216054,-0.02720872,-0.01250121,-0.13529168,19.24673,35.199488)" style="stroke-width:5;stroke-miterlimit:4;stroke-dasharray:none"><path style="opacity:.99;fill:#d38d5f;stroke:#000;stroke-width:5;stroke-linecap:square;stroke-miterlimit:4;stroke-dasharray:none;paint-order:markers fill stroke" id="path1584" d="m 22.985756,151.89487 c 0,3.56913 -2.111765,6.46248 -4.716758,6.46248 -0.651248,0 -1.27167,-0.18083 -1.835974,-0.50785 -0.564306,-0.32702 -0.127703,-1.50913 -0.554486,-2.09387 -0.426782,-0.58474 -1.71695,-0.57211 -1.955631,-1.34527 -0.238681,-0.77316 0.668738,-1.76517 0.668738,-2.65745 0,-0.94828 -0.890334,-1.70689 -0.62255,-2.51817 0.740105,-2.24222 2.387026,-3.80235 4.299903,-3.80235 2.604993,0 4.716758,2.89335 4.716758,6.46248 z"/><path style="opacity:.99;fill:url(#linearGradient1566);fill-opacity:1;stroke:#000;stroke-width:5;stroke-linecap:square;stroke-miterlimit:4;stroke-dasharray:none;paint-order:markers fill stroke" id="path1586" d="m 20.660156,157.78961 c 18.341798,-7.59111 39.781758,-6.7216 59.099535,-8.84857 28.729199,-3.24948 56.084329,-6.6996 84.275489,-12.9291 10.02519,-2.2153 31.2161,-0.50723 40.46922,-3.83972 0.99476,-0.35826 2.51317,-0.019 3.20328,-0.50488 0.69012,-0.48591 -0.95998,-1.8912 -0.63193,-2.52704 0.32806,-0.63583 1.97265,-1.25802 1.88124,-2.06606 -0.0914,-0.80803 -1.91871,-1.14046 -2.48701,-2.14297 -1.17271,-0.45714 0.95858,-2.65757 -0.21975,-3.01317 -1.17833,-0.3556 -4.1287,0.38791 -5.33803,0.30421 -22.61357,-1.56513 -45.48038,8.25515 -68.30587,7.89439 -25.78753,2.14154 -50.642627,4.50219 -75.623393,10.06405 -7.766088,1.59166 -30.285835,0.49124 -39.465549,5.01249 -1.144428,0.56366 -2.054035,1.24843 -2.770329,1.98271 -0.677764,0.69478 5.376627,-0.28809 4.435663,0.82337 -0.936092,1.10571 -0.913113,1.89105 0.604342,2.2771 1.362407,0.34661 -1.729919,2.13823 -0.91725,1.83633 3.618242,-1.34416 0,0 2.084851,2.44995 0.745479,0.87603 -2.662882,2.53485 -2.204477,3.07384 z"/></g><g id="g1594" transform="matrix(-0.06082723,0,0,-0.13800055,47.574059,31.627746)" style="stroke-width:5.10485;stroke-miterlimit:4;stroke-dasharray:none"><path id="path1590" d="m 22.985756,151.89487 c 0,3.56913 -2.111765,6.46248 -4.716758,6.46248 -0.651248,0 -1.27167,-0.18083 -1.835974,-0.50785 -0.564306,-0.32702 -0.127703,-1.50913 -0.554486,-2.09387 -0.426782,-0.58474 -1.71695,-0.57211 -1.955631,-1.34527 -0.238681,-0.77316 0.668738,-1.76517 0.668738,-2.65745 0,-0.94828 -0.890334,-1.70689 -0.62255,-2.51817 0.740105,-2.24222 2.387026,-3.80235 4.299903,-3.80235 2.604993,0 4.716758,2.89335 4.716758,6.46248 z" style="opacity:.99;fill:#d38d5f;stroke:#000;stroke-width:5.10485;stroke-linecap:square;stroke-miterlimit:4;stroke-dasharray:none;paint-order:markers fill stroke"/><path id="path1592" d="m 20.660156,157.78961 c 18.341798,-7.59111 39.781758,-6.7216 59.099535,-8.84857 28.729199,-3.24948 56.084329,-6.6996 84.275489,-12.9291 10.02519,-2.2153 31.2161,-0.50723 40.46922,-3.83972 0.99476,-0.35826 2.51317,-0.019 3.20328,-0.50488 0.69012,-0.48591 -0.95998,-1.8912 -0.63193,-2.52704 0.32806,-0.63583 1.97265,-1.25802 1.88124,-2.06606 -0.0914,-0.80803 -1.91871,-1.14046 -2.48701,-2.14297 -1.17271,-0.45714 0.95858,-2.65757 -0.21975,-3.01317 -1.17833,-0.3556 -4.1287,0.38791 -5.33803,0.30421 -22.61357,-1.56513 -45.48038,8.25515 -68.30587,7.89439 -25.78753,2.14154 -50.642627,4.50219 -75.623393,10.06405 -7.766088,1.59166 -30.285835,0.49124 -39.465549,5.01249 -1.144428,0.56366 -2.054035,1.24843 -2.770329,1.98271 -0.677764,0.69478 5.376627,-0.28809 4.435663,0.82337 -0.936092,1.10571 1.385401,1.48557 -0.184057,1.52154 -1.830075,0.0419 -0.128851,2.59189 -0.128851,2.59189 -0.388124,3.90437 0.579808,1.66582 2.084851,2.44995 1.035905,0.53971 -2.662882,2.53485 -2.204477,3.07384 z" style="opacity:.99;fill:url(#linearGradient1530);fill-opacity:1;stroke:#000;stroke-width:5.10485;stroke-linecap:square;stroke-miterlimit:4;stroke-dasharray:none;paint-order:markers fill stroke"/></g><g id="g1602" transform="matrix(0.056861,-0.00542318,-0.00577939,0.12453073,35.54532,-7.1066304)" style="stroke-width:5.57045;stroke-miterlimit:4;stroke-dasharray:none"><path id="path1596" d="m 132.48524,149.31825 c -2.4857,-1.59581 -3.47009,-4.05325 -2.19868,-5.48887 0.31785,-0.3589 0.7466,-0.61997 1.24978,-0.78475 0.50317,-0.16481 1.11335,0.60438 1.72889,0.63062 0.61554,0.0263 1.23643,-0.69041 1.89139,-0.47627 0.65496,0.21415 0.90295,1.15777 1.52439,1.55673 0.66042,0.42399 1.6233,0.27249 2.05761,0.78281 1.20036,1.4104 1.48311,3.01558 0.54945,4.06979 -1.27142,1.43562 -4.31716,1.30577 -6.80288,-0.29005 z" style="opacity:.99;fill:#d38d5f;stroke:#000;stroke-width:5.57045;stroke-linecap:square;stroke-miterlimit:4;stroke-dasharray:none;paint-order:markers fill stroke"/><path id="path1598" d="m 9.8419805,157.20932 c -0.654063,3.5087 -3.26029,5.96605 -5.8211687,5.48867 -0.6402181,-0.11934 -1.2169954,-0.4108 -1.7118165,-0.8357 -0.4948196,-0.42489 0.1510175,-1.50698 -0.161381,-2.16003 -0.3123984,-0.65305 -2.84461965,0.79138 -1.67598535,-1.68087 0.3458061,-0.73154 -0.7026839,-2.06158 -0.5391684,-2.93875 0.1737775,-0.93222 1.12111605,-1.39228 1.53303845,-2.14075 1.1384704,-2.06862 3.0434051,-3.30052 4.9238885,-2.94997 2.560877,0.47737 4.1066565,3.70872 3.452593,7.2174 z" style="opacity:.99;fill:#deaa87;stroke:#000;stroke-width:5.57045;stroke-linecap:square;stroke-miterlimit:4;stroke-dasharray:none;paint-order:markers fill stroke"/><path id="path1600" d="m 7.0830809,162.00691 c 19.4222991,-4.10131 40.3398351,0.68247 59.7202511,2.13162 28.838159,2.07035 56.362288,3.69164 85.217638,2.73384 10.26137,-0.34062 30.78041,5.22189 40.48753,3.64152 1.04357,-0.16991 2.47409,0.44187 3.24155,0.0907 0.76749,-0.35121 -0.59714,-2.0351 -0.15813,-2.60005 0.43903,-0.56494 2.16978,-0.87521 2.228,-1.68632 0.033,-0.45971 -0.4454,-1.61921 -0.89984,-2.17635 -0.99692,-1.22221 -0.98989,0.086 -1.15234,-0.38609 -1.06908,-0.6643 1.42936,-2.43691 0.33615,-3.00242 -1.0932,-0.56551 -4.12987,-0.37527 -5.30337,-0.67917 -16.02845,-4.15082 -33.23463,-3.50243 -50.06523,-4.61955 -6.0508,0.82852 0.54174,-7.82529 -0.0735,-8.19742 -0.62996,-0.38103 -1.54462,0.42986 -2.29459,0.38958 -0.74996,-0.0403 -0.90961,-2.18662 -1.48305,-1.71541 -2.50046,2.05466 -1.59805,-0.72086 -2.22736,-0.34412 -2.17019,1.29928 -2.20346,-0.29289 -2.2629,-1.08442 -0.44913,-5.98092 -8.27799,8.7804 -10.06123,8.6636 -25.216598,0.74562 -52.333489,1.30822 -77.719592,-2.95683 -7.926256,0.14153 -28.458364,-3.92414 -38.3111691,-1.16169 -1.228341,0.34439 -2.2480335,0.85088 -3.086755,1.44145 -0.7936094,0.55881 5.338367,0.7021 4.209659,1.62229 -1.184577,1.9273 0.304157,2.56181 0.546954,3.51868 0.24088,0.94944 -0.771776,2.22466 -0.0078,3.25827 0.572317,0.99781 -3.0823127,2.00393 -2.7304439,2.6178 z" style="opacity:.99;fill:url(#linearGradient1450);fill-opacity:1;stroke:#000;stroke-width:5.57045;stroke-linecap:square;stroke-miterlimit:4;stroke-dasharray:none;paint-order:markers fill stroke"/></g><g id="g1608" transform="matrix(0.04622514,0,0,0.13800055,36.085851,-7.1865886)" style="stroke-width:5.85589;stroke-miterlimit:4;stroke-dasharray:none"><path style="opacity:.99;fill:#d38d5f;stroke:#000;stroke-width:5.85589;stroke-linecap:square;stroke-miterlimit:4;stroke-dasharray:none;paint-order:markers fill stroke" id="path1604" d="m 22.985756,151.89487 c 0,3.56913 -2.111765,6.46248 -4.716758,6.46248 -0.651248,0 -1.27167,-0.18083 -1.835974,-0.50785 -0.564306,-0.32702 -0.127703,-1.50913 -0.554486,-2.09387 -0.426782,-0.58474 -1.71695,-0.57211 -1.955631,-1.34527 -0.238681,-0.77316 0.668738,-1.76517 0.668738,-2.65745 0,-0.94828 -0.890334,-1.70689 -0.62255,-2.51817 0.740105,-2.24222 2.387026,-3.80235 4.299903,-3.80235 2.604993,0 4.716758,2.89335 4.716758,6.46248 z"/><path style="opacity:.99;fill:url(#linearGradient1459);fill-opacity:1;stroke:#000;stroke-width:5.85589;stroke-linecap:square;stroke-miterlimit:4;stroke-dasharray:none;paint-order:markers fill stroke" id="path1606" d="m 20.660156,157.78961 c 18.341798,-7.59111 39.781758,-6.7216 59.099535,-8.84857 28.729199,-3.24948 56.084329,-6.6996 84.275489,-12.9291 10.02519,-2.2153 31.2161,-0.50723 40.46922,-3.83972 0.99476,-0.35826 2.51317,-0.019 3.20328,-0.50488 0.69012,-0.48591 -0.95998,-1.8912 -0.63193,-2.52704 0.32806,-0.63583 1.97265,-1.25802 1.88124,-2.06606 -0.0914,-0.80803 -1.91871,-1.14046 -2.48701,-2.14297 -1.17271,-0.45714 0.95858,-2.65757 -0.21975,-3.01317 -1.17833,-0.3556 -4.1287,0.38791 -5.33803,0.30421 -22.61357,-1.56513 -45.48038,8.25515 -68.30587,7.89439 -25.78753,2.14154 -50.642627,4.50219 -75.623393,10.06405 -7.766088,1.59166 -30.285835,0.49124 -39.465549,5.01249 -1.144428,0.56366 -2.054035,1.24843 -2.770329,1.98271 -0.677764,0.69478 5.376627,-0.28809 4.435663,0.82337 -0.936092,1.10571 -0.913113,1.89105 0.604342,2.2771 1.362407,0.34661 -1.729919,2.13823 -0.91725,1.83633 3.618242,-1.34416 0,0 2.084851,2.44995 0.745479,0.87603 -2.662882,2.53485 -2.204477,3.07384 z"/></g><g id="g1616" transform="matrix(0.05617058,-0.00224958,0.00100715,0.12546306,3.0006091,-6.8881659)" style="stroke-width:5.57045;stroke-miterlimit:4;stroke-dasharray:none"><path style="opacity:.99;fill:#d38d5f;stroke:#000;stroke-width:5.57045;stroke-linecap:square;stroke-miterlimit:4;stroke-dasharray:none;paint-order:markers fill stroke" id="path1610" d="m 132.48524,149.31825 c -2.4857,-1.59581 -3.47009,-4.05325 -2.19868,-5.48887 0.31785,-0.3589 0.7466,-0.61997 1.24978,-0.78475 0.50317,-0.16481 1.11335,0.60438 1.72889,0.63062 0.61554,0.0263 1.23643,-0.69041 1.89139,-0.47627 0.65496,0.21415 0.90295,1.15777 1.52439,1.55673 0.66042,0.42399 1.6233,0.27249 2.05761,0.78281 1.20036,1.4104 1.48311,3.01558 0.54945,4.06979 -1.27142,1.43562 -4.31716,1.30577 -6.80288,-0.29005 z"/><path style="opacity:.99;fill:#deaa87;stroke:#000;stroke-width:5.57045;stroke-linecap:square;stroke-miterlimit:4;stroke-dasharray:none;paint-order:markers fill stroke" id="path1612" d="m 9.8419805,157.20932 c -0.654063,3.5087 -3.26029,5.96605 -5.8211687,5.48867 -0.6402181,-0.11934 -1.2169954,-0.4108 -1.7118165,-0.8357 -0.4948196,-0.42489 0.1510175,-1.50698 -0.161381,-2.16003 -0.3123984,-0.65305 -2.84461965,0.79138 -1.67598535,-1.68087 0.3458061,-0.73154 -0.7026839,-2.06158 -0.5391684,-2.93875 0.1737775,-0.93222 1.12111605,-1.39228 1.53303845,-2.14075 1.1384704,-2.06862 3.0434051,-3.30052 4.9238885,-2.94997 2.560877,0.47737 4.1066565,3.70872 3.452593,7.2174 z"/><path style="opacity:.99;fill:url(#linearGradient1540);fill-opacity:1;stroke:#000;stroke-width:5.57045;stroke-linecap:square;stroke-miterlimit:4;stroke-dasharray:none;paint-order:markers fill stroke" id="path1614" d="m 6.4755185,162.57806 c 19.4222995,-4.10131 40.3398355,0.68247 59.7202515,2.13162 28.838159,2.07035 56.36229,3.69164 85.21764,2.73384 10.26137,-0.34062 30.78041,5.22189 40.48753,3.64152 1.04357,-0.16991 2.47409,0.44187 3.24155,0.0907 0.76749,-0.35121 -0.59714,-2.0351 -0.15813,-2.60005 0.43903,-0.56494 2.16978,-0.87521 2.228,-1.68632 0.033,-0.45971 -0.4454,-1.61921 -0.89984,-2.17635 -0.99692,-1.22221 -0.98989,0.086 -1.15234,-0.38609 -1.06908,-0.6643 1.42936,-2.43691 0.33615,-3.00242 -1.0932,-0.56551 -4.12987,-0.37527 -5.30337,-0.67917 -16.02845,-4.15082 -33.23463,-3.50243 -50.06523,-4.61955 -6.0508,0.82852 0.54174,-7.82529 -0.0735,-8.19742 -0.62996,-0.38103 -1.54462,0.42986 -2.29459,0.38958 -0.74996,-0.0403 -0.90961,-2.18662 -1.48305,-1.71541 -2.50046,2.05466 -1.59805,-0.72086 -2.22736,-0.34412 -2.17019,1.29928 -2.20346,-0.29289 -2.2629,-1.08442 -0.44913,-5.98092 -8.27799,8.7804 -10.06123,8.6636 -25.2166,0.74562 -52.333491,1.30822 -77.719594,-2.95683 -7.926256,0.14153 -28.458364,-3.92414 -38.3111695,-1.16169 -1.228341,0.34439 -2.2480335,0.85088 -3.086755,1.44145 -0.7936094,0.55881 5.338367,0.7021 4.209659,1.62229 -1.184577,1.9273 0.304157,2.56181 0.546954,3.51868 0.24088,0.94944 -0.771776,2.22466 -0.0078,3.25827 0.572317,0.99781 -3.0823127,2.00393 -2.7304439,2.6178 z"/></g><g id="g1624" transform="matrix(0.05617058,-0.00224958,0.00100715,0.12546306,19.0853,-6.8881659)" style="stroke-width:5.57045;stroke-miterlimit:4;stroke-dasharray:none"><path id="path1618" d="m 132.48524,149.31825 c -2.4857,-1.59581 -3.47009,-4.05325 -2.19868,-5.48887 0.31785,-0.3589 0.7466,-0.61997 1.24978,-0.78475 0.50317,-0.16481 1.11335,0.60438 1.72889,0.63062 0.61554,0.0263 1.23643,-0.69041 1.89139,-0.47627 0.65496,0.21415 0.90295,1.15777 1.52439,1.55673 0.66042,0.42399 1.6233,0.27249 2.05761,0.78281 1.20036,1.4104 1.48311,3.01558 0.54945,4.06979 -1.27142,1.43562 -4.31716,1.30577 -6.80288,-0.29005 z" style="opacity:.99;fill:#d38d5f;stroke:#000;stroke-width:5.57045;stroke-linecap:square;stroke-miterlimit:4;stroke-dasharray:none;paint-order:markers fill stroke"/><path id="path1620" d="m 9.8419805,157.20932 c -0.654063,3.5087 -3.26029,5.96605 -5.8211687,5.48867 -0.6402181,-0.11934 -1.2169954,-0.4108 -1.7118165,-0.8357 -0.4948196,-0.42489 0.1510175,-1.50698 -0.161381,-2.16003 -0.3123984,-0.65305 -2.84461965,0.79138 -1.67598535,-1.68087 0.3458061,-0.73154 -0.7026839,-2.06158 -0.5391684,-2.93875 0.1737775,-0.93222 1.12111605,-1.39228 1.53303845,-2.14075 1.1384704,-2.06862 3.0434051,-3.30052 4.9238885,-2.94997 2.560877,0.47737 4.1066565,3.70872 3.452593,7.2174 z" style="opacity:.99;fill:#deaa87;stroke:#000;stroke-width:5.57045;stroke-linecap:square;stroke-miterlimit:4;stroke-dasharray:none;paint-order:markers fill stroke"/><path id="path1622" d="m 6.4755185,162.57806 c 19.4222995,-4.10131 40.3398355,0.68247 59.7202515,2.13162 28.838159,2.07035 56.36229,3.69164 85.21764,2.73384 10.26137,-0.34062 30.78041,5.22189 40.48753,3.64152 1.04357,-0.16991 2.47409,0.44187 3.24155,0.0907 0.76749,-0.35121 -0.59714,-2.0351 -0.15813,-2.60005 0.43903,-0.56494 2.16978,-0.87521 2.228,-1.68632 0.033,-0.45971 -0.4454,-1.61921 -0.89984,-2.17635 -0.99692,-1.22221 -0.98989,0.086 -1.15234,-0.38609 -1.06908,-0.6643 1.42936,-2.43691 0.33615,-3.00242 -1.0932,-0.56551 -4.12987,-0.37527 -5.30337,-0.67917 -16.02845,-4.15082 -33.23463,-3.50243 -50.06523,-4.61955 -6.0508,0.82852 0.54174,-7.82529 -0.0735,-8.19742 -0.62996,-0.38103 -1.54462,0.42986 -2.29459,0.38958 -0.74996,-0.0403 -0.90961,-2.18662 -1.48305,-1.71541 -2.50046,2.05466 -1.59805,-0.72086 -2.22736,-0.34412 -2.17019,1.29928 -2.20346,-0.29289 -2.2629,-1.08442 -0.44913,-5.98092 -8.27799,8.7804 -10.06123,8.6636 -25.2166,0.74562 -52.333491,1.30822 -77.719594,-2.95683 -7.926256,0.14153 -28.458364,-3.92414 -38.3111695,-1.16169 -1.228341,0.34439 -2.2480335,0.85088 -3.086755,1.44145 -0.7936094,0.55881 5.338367,0.7021 4.209659,1.62229 -1.184577,1.9273 0.304157,2.56181 0.546954,3.51868 0.24088,0.94944 -0.771776,2.22466 -0.0078,3.25827 0.572317,0.99781 -3.0823127,2.00393 -2.7304439,2.6178 z" style="opacity:.99;fill:url(#linearGradient1550);fill-opacity:1;stroke:#000;stroke-width:5.57045;stroke-linecap:square;stroke-miterlimit:4;stroke-dasharray:none;paint-order:markers fill stroke"/></g><g id="g1572" transform="matrix(-0.05617058,0.00224958,-0.00100715,-0.12546306,46.098573,33.147185)" style="fill:url(#linearGradient1666);fill-opacity:1"><path style="opacity:.99;fill:#c87137;fill-opacity:1;stroke:#000;stroke-width:1.89561;stroke-linecap:square;stroke-miterlimit:4;stroke-dasharray:none;paint-order:markers fill stroke" id="path1568" d="m 9.8419805,157.20932 c -0.654063,3.5087 -3.26029,5.96605 -5.8211687,5.48867 -0.6402181,-0.11934 -1.2169954,-0.4108 -1.7118165,-0.8357 -0.4948196,-0.42489 0.1510175,-1.50698 -0.161381,-2.16003 -0.3123984,-0.65305 -2.84461965,0.79138 -1.67598535,-1.68087 0.3458061,-0.73154 -0.7026839,-2.06158 -0.5391684,-2.93875 0.1737775,-0.93222 1.12111605,-1.39228 1.53303845,-2.14075 1.1384704,-2.06862 3.0434051,-3.30052 4.9238885,-2.94997 2.560877,0.47737 4.1066565,3.70872 3.452593,7.2174 z"/><path style="opacity:.99;fill:url(#linearGradient1664);fill-opacity:1;stroke:#000;stroke-width:1.5;stroke-linecap:square;stroke-miterlimit:4;stroke-dasharray:none;paint-order:markers fill stroke" id="path1570" d="m 6.4755185,162.57806 c 19.4222995,-4.10131 40.3398355,0.68247 59.7202515,2.13162 28.838159,2.07035 56.36229,3.69164 85.21764,2.73384 10.26137,-0.34062 30.78041,5.22189 40.48753,3.64152 1.04357,-0.16991 2.47409,0.44187 3.24155,0.0907 0.76749,-0.35121 -0.59714,-2.0351 -0.15813,-2.60005 0.43903,-0.56494 2.16978,-0.87521 2.228,-1.68632 0.033,-0.45971 -0.4454,-1.61921 -0.89984,-2.17635 -0.99692,-1.22221 -0.98989,0.086 -1.15234,-0.38609 -1.06908,-0.6643 1.42936,-2.43691 0.33615,-3.00242 -1.0932,-0.56551 -4.12987,-0.37527 -5.30337,-0.67917 -16.02845,-4.15082 -33.23463,-3.50243 -50.06523,-4.61955 -6.0508,0.82852 -2.85765,-4.99631 -3.47289,-5.36844 -0.62996,-0.38103 -0.56505,-0.69637 -1.31502,-0.73665 -0.74996,-0.0403 -0.90961,-2.18662 -1.48305,-1.71541 -2.50046,2.05466 -1.59805,-0.72086 -2.22736,-0.34412 -2.17019,1.29928 -1.45639,-1.19392 -2.2629,-1.08442 -3.69348,0.50144 -5.85817,7.07765 -7.64141,6.96085 -25.2166,0.74562 -52.333491,1.30822 -77.719594,-2.95683 -7.926256,0.14153 -28.458364,-3.92414 -38.3111695,-1.16169 -1.228341,0.34439 -2.2480335,0.85088 -3.086755,1.44145 -0.7936094,0.55881 5.338367,0.7021 4.209659,1.62229 -1.184577,1.9273 0.304157,2.56181 0.546954,3.51868 0.24088,0.94944 -0.771776,2.22466 -0.0078,3.25827 0.572317,0.99781 -3.0823127,2.00393 -2.7304439,2.6178 z"/></g><g id="g1564" transform="matrix(0.06216054,-0.02720872,-0.01250121,-0.13529166,19.24673,35.199488)"><path id="path1560" d="m 22.985756,151.89487 c 0,3.56913 -2.111765,6.46248 -4.716758,6.46248 -0.651248,0 -1.27167,-0.18083 -1.835974,-0.50785 -0.564306,-0.32702 -0.127703,-1.50913 -0.554486,-2.09387 -0.426782,-0.58474 -1.71695,-0.57211 -1.955631,-1.34527 -0.238681,-0.77316 0.668738,-1.76517 0.668738,-2.65745 0,-0.94828 -0.890334,-1.70689 -0.62255,-2.51817 0.740105,-2.24222 2.387026,-3.80235 4.299903,-3.80235 2.604993,0 4.716758,2.89335 4.716758,6.46248 z" style="opacity:.99;fill:#d38d5f;stroke:#000;stroke-width:1.89561;stroke-linecap:square;stroke-miterlimit:4;stroke-dasharray:none;paint-order:markers fill stroke"/><path id="path1562" d="m 20.660156,157.78961 c 18.341798,-7.59111 39.781758,-6.7216 59.099535,-8.84857 28.729199,-3.24948 56.084329,-6.6996 84.275489,-12.9291 10.02519,-2.2153 31.2161,-0.50723 40.46922,-3.83972 0.99476,-0.35826 2.51317,-0.019 3.20328,-0.50488 0.69012,-0.48591 -0.95998,-1.8912 -0.63193,-2.52704 0.32806,-0.63583 1.97265,-1.25802 1.88124,-2.06606 -0.0914,-0.80803 -1.91871,-1.14046 -2.48701,-2.14297 -1.17271,-0.45714 0.95858,-2.65757 -0.21975,-3.01317 -1.17833,-0.3556 -4.1287,0.38791 -5.33803,0.30421 -22.61357,-1.56513 -45.48038,8.25515 -68.30587,7.89439 -25.78753,2.14154 -50.642627,4.50219 -75.623393,10.06405 -7.766088,1.59166 -30.285835,0.49124 -39.465549,5.01249 -1.144428,0.56366 -2.054035,1.24843 -2.770329,1.98271 -0.677764,0.69478 5.376627,-0.28809 4.435663,0.82337 -0.936092,1.10571 -0.913113,1.89105 0.604342,2.2771 1.362407,0.34661 -1.729919,2.13823 -0.91725,1.83633 3.618242,-1.34416 0,0 2.084851,2.44995 0.745479,0.87603 -2.662882,2.53485 -2.204477,3.07384 z" style="opacity:.99;fill:url(#linearGradient1662);fill-opacity:1;stroke:#000;stroke-width:1.5;stroke-linecap:square;stroke-miterlimit:4;stroke-dasharray:none;paint-order:markers fill stroke"/></g><g id="g1518" transform="matrix(-0.06082723,0,0,-0.13800055,47.574059,31.627745)"><path style="opacity:.99;fill:#d38d5f;stroke:#000;stroke-width:1.89561;stroke-linecap:square;stroke-miterlimit:4;stroke-dasharray:none;paint-order:markers fill stroke" id="path1514" d="m 22.985756,151.89487 c 0,3.56913 -2.111765,6.46248 -4.716758,6.46248 -0.651248,0 -1.27167,-0.18083 -1.835974,-0.50785 -0.564306,-0.32702 -0.127703,-1.50913 -0.554486,-2.09387 -0.426782,-0.58474 -1.71695,-0.57211 -1.955631,-1.34527 -0.238681,-0.77316 0.668738,-1.76517 0.668738,-2.65745 0,-0.94828 -0.890334,-1.70689 -0.62255,-2.51817 0.740105,-2.24222 2.387026,-3.80235 4.299903,-3.80235 2.604993,0 4.716758,2.89335 4.716758,6.46248 z"/><path style="opacity:.99;fill:url(#linearGradient1660);fill-opacity:1;stroke:#000;stroke-width:1.5;stroke-linecap:square;stroke-miterlimit:4;stroke-dasharray:none;paint-order:markers fill stroke" id="path1516" d="m 20.660156,157.78961 c 18.341798,-7.59111 39.781758,-6.7216 59.099535,-8.84857 28.729199,-3.24948 56.084329,-6.6996 84.275489,-12.9291 10.02519,-2.2153 31.2161,-0.50723 40.46922,-3.83972 0.99476,-0.35826 2.51317,-0.019 3.20328,-0.50488 0.69012,-0.48591 -0.95998,-1.8912 -0.63193,-2.52704 0.32806,-0.63583 1.97265,-1.25802 1.88124,-2.06606 -0.0914,-0.80803 -1.91871,-1.14046 -2.48701,-2.14297 -1.17271,-0.45714 0.95858,-2.65757 -0.21975,-3.01317 -1.17833,-0.3556 -4.1287,0.38791 -5.33803,0.30421 -22.61357,-1.56513 -45.48038,8.25515 -68.30587,7.89439 -25.78753,2.14154 -50.642627,4.50219 -75.623393,10.06405 -7.766088,1.59166 -30.285835,0.49124 -39.465549,5.01249 -1.144428,0.56366 -2.054035,1.24843 -2.770329,1.98271 -0.677764,0.69478 5.376627,-0.28809 4.435663,0.82337 -0.936092,1.10571 1.385401,1.48557 -0.184057,1.52154 -1.830075,0.0419 -0.128851,2.59189 -0.128851,2.59189 -0.388124,3.90437 0.579808,1.66582 2.084851,2.44995 1.035905,0.53971 -2.662882,2.53485 -2.204477,3.07384 z"/></g><g id="g1512" transform="matrix(0.056861,-0.00542318,-0.00577939,0.12453072,35.54532,-7.1066304)"><path style="opacity:.99;fill:#d38d5f;stroke:#000;stroke-width:1.47082;stroke-linecap:square;stroke-miterlimit:4;stroke-dasharray:none;paint-order:markers fill stroke" id="path1455-7" d="m 132.48524,149.31825 c -2.4857,-1.59581 -3.47009,-4.05325 -2.19868,-5.48887 0.31785,-0.3589 0.7466,-0.61997 1.24978,-0.78475 0.50317,-0.16481 1.11335,0.60438 1.72889,0.63062 0.61554,0.0263 1.23643,-0.69041 1.89139,-0.47627 0.65496,0.21415 0.90295,1.15777 1.52439,1.55673 0.66042,0.42399 1.6233,0.27249 2.05761,0.78281 1.20036,1.4104 1.48311,3.01558 0.54945,4.06979 -1.27142,1.43562 -4.31716,1.30577 -6.80288,-0.29005 z"/><path style="opacity:.99;fill:#deaa87;stroke:#000;stroke-width:1.89561;stroke-linecap:square;stroke-miterlimit:4;stroke-dasharray:none;paint-order:markers fill stroke" id="path1452" d="m 9.8419805,157.20932 c -0.654063,3.5087 -3.26029,5.96605 -5.8211687,5.48867 -0.6402181,-0.11934 -1.2169954,-0.4108 -1.7118165,-0.8357 -0.4948196,-0.42489 0.1510175,-1.50698 -0.161381,-2.16003 -0.3123984,-0.65305 -2.84461965,0.79138 -1.67598535,-1.68087 0.3458061,-0.73154 -0.7026839,-2.06158 -0.5391684,-2.93875 0.1737775,-0.93222 1.12111605,-1.39228 1.53303845,-2.14075 1.1384704,-2.06862 3.0434051,-3.30052 4.9238885,-2.94997 2.560877,0.47737 4.1066565,3.70872 3.452593,7.2174 z"/><path style="opacity:.99;fill:url(#linearGradient1658);fill-opacity:1;stroke:#000;stroke-width:1.5;stroke-linecap:square;stroke-miterlimit:4;stroke-dasharray:none;paint-order:markers fill stroke" id="path1424" d="m 7.0830809,162.00691 c 19.4222991,-4.10131 40.3398351,0.68247 59.7202511,2.13162 28.838159,2.07035 56.362288,3.69164 85.217638,2.73384 10.26137,-0.34062 30.78041,5.22189 40.48753,3.64152 1.04357,-0.16991 2.47409,0.44187 3.24155,0.0907 0.76749,-0.35121 -0.59714,-2.0351 -0.15813,-2.60005 0.43903,-0.56494 2.16978,-0.87521 2.228,-1.68632 0.033,-0.45971 -0.4454,-1.61921 -0.89984,-2.17635 -0.99692,-1.22221 -0.98989,0.086 -1.15234,-0.38609 -1.06908,-0.6643 1.42936,-2.43691 0.33615,-3.00242 -1.0932,-0.56551 -4.12987,-0.37527 -5.30337,-0.67917 -16.02845,-4.15082 -33.23463,-3.50243 -50.06523,-4.61955 -6.0508,0.82852 0.54174,-7.82529 -0.0735,-8.19742 -0.62996,-0.38103 -1.54462,0.42986 -2.29459,0.38958 -0.74996,-0.0403 -0.90961,-2.18662 -1.48305,-1.71541 -2.50046,2.05466 -1.59805,-0.72086 -2.22736,-0.34412 -2.17019,1.29928 -2.20346,-0.29289 -2.2629,-1.08442 -0.44913,-5.98092 -8.27799,8.7804 -10.06123,8.6636 -25.216598,0.74562 -52.333489,1.30822 -77.719592,-2.95683 -7.926256,0.14153 -28.458364,-3.92414 -38.3111691,-1.16169 -1.228341,0.34439 -2.2480335,0.85088 -3.086755,1.44145 -0.7936094,0.55881 5.338367,0.7021 4.209659,1.62229 -1.184577,1.9273 0.304157,2.56181 0.546954,3.51868 0.24088,0.94944 -0.771776,2.22466 -0.0078,3.25827 0.572317,0.99781 -3.0823127,2.00393 -2.7304439,2.6178 z"/></g><g id="g1477" transform="matrix(0.04622514,0,0,0.13800055,36.085851,-7.1865886)"><path id="path1455" d="m 22.985756,151.89487 c 0,3.56913 -2.111765,6.46248 -4.716758,6.46248 -0.651248,0 -1.27167,-0.18083 -1.835974,-0.50785 -0.564306,-0.32702 -0.127703,-1.50913 -0.554486,-2.09387 -0.426782,-0.58474 -1.71695,-0.57211 -1.955631,-1.34527 -0.238681,-0.77316 0.668738,-1.76517 0.668738,-2.65745 0,-0.94828 -0.890334,-1.70689 -0.62255,-2.51817 0.740105,-2.24222 2.387026,-3.80235 4.299903,-3.80235 2.604993,0 4.716758,2.89335 4.716758,6.46248 z" style="opacity:.99;fill:#d38d5f;stroke:#000;stroke-width:1.89561;stroke-linecap:square;stroke-miterlimit:4;stroke-dasharray:none;paint-order:markers fill stroke"/><path id="path1457" d="m 20.660156,157.78961 c 18.341798,-7.59111 39.781758,-6.7216 59.099535,-8.84857 28.729199,-3.24948 56.084329,-6.6996 84.275489,-12.9291 10.02519,-2.2153 31.2161,-0.50723 40.46922,-3.83972 0.99476,-0.35826 2.51317,-0.019 3.20328,-0.50488 0.69012,-0.48591 -0.95998,-1.8912 -0.63193,-2.52704 0.32806,-0.63583 1.97265,-1.25802 1.88124,-2.06606 -0.0914,-0.80803 -1.91871,-1.14046 -2.48701,-2.14297 -1.17271,-0.45714 0.95858,-2.65757 -0.21975,-3.01317 -1.17833,-0.3556 -4.1287,0.38791 -5.33803,0.30421 -22.61357,-1.56513 -45.48038,8.25515 -68.30587,7.89439 -25.78753,2.14154 -50.642627,4.50219 -75.623393,10.06405 -7.766088,1.59166 -30.285835,0.49124 -39.465549,5.01249 -1.144428,0.56366 -2.054035,1.24843 -2.770329,1.98271 -0.677764,0.69478 5.376627,-0.28809 4.435663,0.82337 -0.936092,1.10571 -0.913113,1.89105 0.604342,2.2771 1.362407,0.34661 -1.729919,2.13823 -0.91725,1.83633 3.618242,-1.34416 0,0 2.084851,2.44995 0.745479,0.87603 -2.662882,2.53485 -2.204477,3.07384 z" style="opacity:.99;fill:url(#linearGradient1656);fill-opacity:1;stroke:#000;stroke-width:1.5;stroke-linecap:square;stroke-miterlimit:4;stroke-dasharray:none;paint-order:markers fill stroke"/></g><g id="g1538" transform="matrix(0.05617058,-0.00224958,0.00100715,0.12546306,3.0006091,-6.8881648)"><path id="path1532" d="m 132.48524,149.31825 c -2.4857,-1.59581 -3.47009,-4.05325 -2.19868,-5.48887 0.31785,-0.3589 0.7466,-0.61997 1.24978,-0.78475 0.50317,-0.16481 1.11335,0.60438 1.72889,0.63062 0.61554,0.0263 1.23643,-0.69041 1.89139,-0.47627 0.65496,0.21415 0.90295,1.15777 1.52439,1.55673 0.66042,0.42399 1.6233,0.27249 2.05761,0.78281 1.20036,1.4104 1.48311,3.01558 0.54945,4.06979 -1.27142,1.43562 -4.31716,1.30577 -6.80288,-0.29005 z" style="opacity:.99;fill:#d38d5f;stroke:#000;stroke-width:1.47082;stroke-linecap:square;stroke-miterlimit:4;stroke-dasharray:none;paint-order:markers fill stroke"/><path id="path1534" d="m 9.8419805,157.20932 c -0.654063,3.5087 -3.26029,5.96605 -5.8211687,5.48867 -0.6402181,-0.11934 -1.2169954,-0.4108 -1.7118165,-0.8357 -0.4948196,-0.42489 0.1510175,-1.50698 -0.161381,-2.16003 -0.3123984,-0.65305 -2.84461965,0.79138 -1.67598535,-1.68087 0.3458061,-0.73154 -0.7026839,-2.06158 -0.5391684,-2.93875 0.1737775,-0.93222 1.12111605,-1.39228 1.53303845,-2.14075 1.1384704,-2.06862 3.0434051,-3.30052 4.9238885,-2.94997 2.560877,0.47737 4.1066565,3.70872 3.452593,7.2174 z" style="opacity:.99;fill:#deaa87;stroke:#000;stroke-width:1.89561;stroke-linecap:square;stroke-miterlimit:4;stroke-dasharray:none;paint-order:markers fill stroke"/><path id="path1536" d="m 6.4755185,162.57806 c 19.4222995,-4.10131 40.3398355,0.68247 59.7202515,2.13162 28.838159,2.07035 56.36229,3.69164 85.21764,2.73384 10.26137,-0.34062 30.78041,5.22189 40.48753,3.64152 1.04357,-0.16991 2.47409,0.44187 3.24155,0.0907 0.76749,-0.35121 -0.59714,-2.0351 -0.15813,-2.60005 0.43903,-0.56494 2.16978,-0.87521 2.228,-1.68632 0.033,-0.45971 -0.4454,-1.61921 -0.89984,-2.17635 -0.99692,-1.22221 -0.98989,0.086 -1.15234,-0.38609 -1.06908,-0.6643 1.42936,-2.43691 0.33615,-3.00242 -1.0932,-0.56551 -4.12987,-0.37527 -5.30337,-0.67917 -16.02845,-4.15082 -33.23463,-3.50243 -50.06523,-4.61955 -6.0508,0.82852 0.54174,-7.82529 -0.0735,-8.19742 -0.62996,-0.38103 -1.54462,0.42986 -2.29459,0.38958 -0.74996,-0.0403 -0.90961,-2.18662 -1.48305,-1.71541 -2.50046,2.05466 -1.59805,-0.72086 -2.22736,-0.34412 -2.17019,1.29928 -2.20346,-0.29289 -2.2629,-1.08442 -0.44913,-5.98092 -8.27799,8.7804 -10.06123,8.6636 -25.2166,0.74562 -52.333491,1.30822 -77.719594,-2.95683 -7.926256,0.14153 -28.458364,-3.92414 -38.3111695,-1.16169 -1.228341,0.34439 -2.2480335,0.85088 -3.086755,1.44145 -0.7936094,0.55881 5.338367,0.7021 4.209659,1.62229 -1.184577,1.9273 0.304157,2.56181 0.546954,3.51868 0.24088,0.94944 -0.771776,2.22466 -0.0078,3.25827 0.572317,0.99781 -3.0823127,2.00393 -2.7304439,2.6178 z" style="opacity:.99;fill:url(#linearGradient1654);fill-opacity:1;stroke:#000;stroke-width:1.5;stroke-linecap:square;stroke-miterlimit:4;stroke-dasharray:none;paint-order:markers fill stroke"/></g><g id="g1548" transform="matrix(0.05617058,-0.00224958,0.00100715,0.12546306,19.0853,-6.8881659)"><path style="opacity:.99;fill:#d38d5f;stroke:#000;stroke-width:1.47082;stroke-linecap:square;stroke-miterlimit:4;stroke-dasharray:none;paint-order:markers fill stroke" id="path1542" d="m 132.48524,149.31825 c -2.4857,-1.59581 -3.47009,-4.05325 -2.19868,-5.48887 0.31785,-0.3589 0.7466,-0.61997 1.24978,-0.78475 0.50317,-0.16481 1.11335,0.60438 1.72889,0.63062 0.61554,0.0263 1.23643,-0.69041 1.89139,-0.47627 0.65496,0.21415 0.90295,1.15777 1.52439,1.55673 0.66042,0.42399 1.6233,0.27249 2.05761,0.78281 1.20036,1.4104 1.48311,3.01558 0.54945,4.06979 -1.27142,1.43562 -4.31716,1.30577 -6.80288,-0.29005 z"/><path style="opacity:.99;fill:#deaa87;stroke:#000;stroke-width:1.89561;stroke-linecap:square;stroke-miterlimit:4;stroke-dasharray:none;paint-order:markers fill stroke" id="path1544" d="m 9.8419805,157.20932 c -0.654063,3.5087 -3.26029,5.96605 -5.8211687,5.48867 -0.6402181,-0.11934 -1.2169954,-0.4108 -1.7118165,-0.8357 -0.4948196,-0.42489 0.1510175,-1.50698 -0.161381,-2.16003 -0.3123984,-0.65305 -2.84461965,0.79138 -1.67598535,-1.68087 0.3458061,-0.73154 -0.7026839,-2.06158 -0.5391684,-2.93875 0.1737775,-0.93222 1.12111605,-1.39228 1.53303845,-2.14075 1.1384704,-2.06862 3.0434051,-3.30052 4.9238885,-2.94997 2.560877,0.47737 4.1066565,3.70872 3.452593,7.2174 z"/><path style="opacity:.99;fill:url(#linearGradient1652);fill-opacity:1;stroke:#000;stroke-width:1.5;stroke-linecap:square;stroke-miterlimit:4;stroke-dasharray:none;paint-order:markers fill stroke" id="path1546" d="m 6.4755185,162.57806 c 19.4222995,-4.10131 40.3398355,0.68247 59.7202515,2.13162 28.838159,2.07035 56.36229,3.69164 85.21764,2.73384 10.26137,-0.34062 30.78041,5.22189 40.48753,3.64152 1.04357,-0.16991 2.47409,0.44187 3.24155,0.0907 0.76749,-0.35121 -0.59714,-2.0351 -0.15813,-2.60005 0.43903,-0.56494 2.16978,-0.87521 2.228,-1.68632 0.033,-0.45971 -0.4454,-1.61921 -0.89984,-2.17635 -0.99692,-1.22221 -0.98989,0.086 -1.15234,-0.38609 -1.06908,-0.6643 1.42936,-2.43691 0.33615,-3.00242 -1.0932,-0.56551 -4.12987,-0.37527 -5.30337,-0.67917 -16.02845,-4.15082 -33.23463,-3.50243 -50.06523,-4.61955 -6.0508,0.82852 0.54174,-7.82529 -0.0735,-8.19742 -0.62996,-0.38103 -1.54462,0.42986 -2.29459,0.38958 -0.74996,-0.0403 -0.90961,-2.18662 -1.48305,-1.71541 -2.50046,2.05466 -1.59805,-0.72086 -2.22736,-0.34412 -2.17019,1.29928 -2.20346,-0.29289 -2.2629,-1.08442 -0.44913,-5.98092 -8.27799,8.7804 -10.06123,8.6636 -25.2166,0.74562 -52.333491,1.30822 -77.719594,-2.95683 -7.926256,0.14153 -28.458364,-3.92414 -38.3111695,-1.16169 -1.228341,0.34439 -2.2480335,0.85088 -3.086755,1.44145 -0.7936094,0.55881 5.338367,0.7021 4.209659,1.62229 -1.184577,1.9273 0.304157,2.56181 0.546954,3.51868 0.24088,0.94944 -0.771776,2.22466 -0.0078,3.25827 0.572317,0.99781 -3.0823127,2.00393 -2.7304439,2.6178 z"/></g></g></svg>